<svg version="1.1" id="Layer_1" xmlns="http://www.w3.org/2000/svg" xmlns:xlink="http://www.w3.org/1999/xlink" x="0px" y="0px"
	 width="100%" viewBox="0 0 989 472" enable-background="new 0 0 989 472" xml:space="preserve">
<path fill="none" opacity="1.000000" stroke="#AB8BFF" stroke-linecap="round" stroke-linejoin="round" stroke-width="3.000000"
	d="
M572.000000,116.000000 
	C569.734192,119.375916 571.025330,123.364609 570.246887,127.052124 
	C568.736328,134.207306 569.002686,141.716736 567.919434,148.987991 
	C566.382874,159.301437 565.750793,169.708420 564.208618,180.031158 
	C563.176880,186.936966 562.800598,194.013702 561.988403,200.998657 
	C561.038147,209.171112 559.590942,217.309967 559.122925,225.507019 
	C558.711060,232.718506 557.670593,239.839890 556.893127,246.988373 
	C556.058044,254.666306 555.196472,262.359924 554.207153,270.026733 
	C553.332031,276.808594 552.759033,283.675629 552.000977,290.500122 
	C551.110840,298.513885 549.953857,306.518768 549.218384,314.520081 
	C548.544373,321.851685 547.516052,329.150360 546.944946,336.495728 
	C546.360352,344.015045 545.498596,351.523529 544.435120,358.990753 
	C543.840881,363.162689 544.263489,367.508820 542.371704,371.788788 
	C539.093323,372.800415 535.772034,371.186584 532.518982,370.827789 
	C517.975342,369.223785 503.515411,366.878571 488.995209,365.037781 
	C477.018677,363.519470 464.982971,362.468781 453.004822,360.961761 
	C441.149445,359.470215 429.370331,357.274536 417.485535,356.153351 
	C410.810333,355.523621 404.173279,354.588898 397.509979,353.903137 
	C388.303589,352.955719 379.203827,350.866913 369.989441,350.132355 
	C360.939423,349.410889 352.029785,347.745453 343.002258,346.973541 
	C338.988861,346.630341 334.932404,346.291931 331.026123,345.387268 
	C328.790161,344.869415 326.538788,344.729218 324.523834,345.122162 
	C320.165588,345.972107 317.005646,349.888702 317.000000,353.500000 
	C316.993103,357.919617 320.862061,363.073975 325.513184,363.928223 
	C332.462433,365.204590 339.507263,365.952087 346.498199,367.011810 
	C355.820557,368.424927 365.196503,369.452332 374.529083,370.798248 
	C380.796173,371.702057 387.162598,372.371521 393.496277,373.035492 
	C403.343719,374.067841 413.171051,375.297729 422.998383,376.513031 
	C429.173676,377.276672 435.326477,378.221954 441.501556,378.987488 
	C451.677979,380.249054 461.853149,381.541260 472.023712,382.809906 
	C478.486847,383.616058 484.989075,384.428131 491.493439,385.066864 
	C500.686005,385.969635 509.833618,387.331085 518.999878,388.500732 
	C525.500427,389.330200 531.995300,390.205994 538.501404,390.988495 
	C544.494873,391.709351 550.504028,392.299774 556.498352,393.013947 
	C559.590637,393.382324 560.871887,392.557434 561.117371,389.008118 
	C561.950256,376.965393 563.591919,364.984344 564.782532,352.978424 
	C565.572998,345.006927 566.499695,337.016693 567.121704,329.009460 
	C567.966187,318.138153 570.010620,307.360840 570.880188,296.490417 
	C571.467957,289.143066 572.186829,281.817749 573.025452,274.502930 
	C573.981323,266.164856 574.813904,257.811218 575.816833,249.477951 
	C576.674377,242.353241 577.187683,235.153534 577.994385,227.999374 
	C578.934937,219.658722 579.938171,211.315445 580.803284,202.979584 
	C581.545288,195.830139 582.237915,188.655319 583.034973,181.503891 
	C583.964539,173.163391 584.707336,164.805740 585.817932,156.475723 
	C586.678162,150.023605 587.079529,143.478256 587.963257,136.994995 
	C588.800720,130.851608 589.333313,124.666664 590.000000,118.500000 
"/>
<path fill="none" opacity="1.000000" stroke="#AB8BFF" stroke-linecap="round" stroke-linejoin="round" stroke-width="3.000000"
	d="
M670.000000,237.500000 
	C666.642273,240.976746 664.537842,245.607697 660.010986,248.020569 
	C654.533142,250.940323 650.679504,248.766602 651.062256,242.503799 
	C651.551819,234.494751 652.584595,226.518341 653.275452,218.523804 
	C653.796753,212.491302 653.484680,206.484421 654.044922,200.504211 
	C654.499634,195.651428 654.726990,190.776917 655.936890,185.984055 
	C657.300964,180.580063 660.289856,176.563019 664.436829,172.927963 
	C670.509827,167.604721 677.301758,163.395889 683.988586,158.982712 
	C691.704346,153.890427 700.173340,149.552124 706.788086,143.276672 
	C715.120850,135.371353 725.223389,133.586060 735.466797,130.874573 
	C747.370911,127.723480 758.436340,122.507759 763.901794,110.455467 
	C768.471313,100.378830 766.659424,92.127922 758.455933,88.089493 
	C752.207092,85.013290 745.106567,85.233536 738.528625,86.195633 
	C728.917297,87.601387 719.533936,90.501633 709.985291,92.427017 
	C705.404053,93.350777 700.675842,93.783943 695.997925,93.935135 
	C688.505737,94.177292 680.972168,94.414925 673.505737,93.914421 
	C657.508911,92.842094 643.049561,97.743660 629.010498,104.521790 
	C619.567322,109.081017 610.377075,114.237083 599.997131,116.486687 
	C591.473083,118.334076 582.951782,119.381981 574.493958,116.015244 
	C569.718140,114.114182 568.271423,109.712097 571.531616,106.027954 
	C574.445190,102.735405 573.313232,98.660713 573.887329,94.982414 
	C575.155029,86.860725 575.833740,78.641594 576.768616,70.473518 
	C577.289551,65.920937 578.473450,61.207386 577.940857,56.436268 
	C568.972351,54.220726 560.155762,54.908390 551.488342,54.129745 
	C537.018982,52.829884 522.466858,52.561802 507.991333,51.084946 
	C502.361298,50.510544 496.635345,50.410404 490.992676,50.232697 
	C482.814453,49.975136 474.665833,49.235420 466.507141,48.849026 
	C448.650726,48.003349 430.839172,46.246376 412.996613,45.050762 
	C407.335297,44.671406 401.673035,44.767937 395.984467,44.141022 
	C386.708679,43.118778 377.334198,42.983166 367.999634,42.507473 
	C363.673035,42.286987 361.551208,44.817654 361.011963,51.001041 
	C359.609985,67.077141 357.329163,83.038391 355.053467,99.007622 
	C353.444031,110.301613 352.461456,121.683624 350.964050,132.995239 
	C349.460938,144.350220 347.206421,155.623276 346.132599,167.012497 
	C345.108978,177.869492 343.437531,188.644821 342.230896,199.470001 
	C341.452209,206.455612 340.885193,213.619751 339.000000,220.500000 
"/>
<path fill="none" opacity="1.000000" stroke="#AB8BFF" stroke-linecap="round" stroke-linejoin="round" stroke-width="3.000000"
	d="
M718.500000,134.000015 
	C720.333374,130.500015 722.756775,127.179878 723.888855,123.466118 
	C727.213440,112.559952 724.335449,103.908699 713.443665,101.228996 
	C705.509216,99.276871 697.132202,100.812553 689.534058,104.079254 
	C680.281128,108.057419 672.517151,114.453705 665.574646,121.572769 
	C653.144653,134.318878 639.084229,144.948349 624.523193,155.033478 
	C620.442810,157.859604 616.750671,161.226334 618.027527,166.993896 
	C619.370056,173.057846 624.223694,174.733459 629.504944,175.464310 
	C636.104736,176.377655 642.096863,174.073624 648.001831,171.504181 
	C661.903320,165.455246 674.223328,156.853424 685.942566,147.428574 
	C693.826660,141.087997 703.179871,138.705460 712.512207,136.042862 
	C713.084778,135.879517 713.833313,136.333344 714.500000,136.500000 
"/>
<path fill="none" opacity="1.000000" stroke="#AB8BFF" stroke-linecap="round" stroke-linejoin="round" stroke-width="3.000000"
	d="
M144.000000,279.500000 
	C140.497559,277.873444 137.576096,280.131775 134.512451,281.041931 
	C123.582283,284.289124 113.769127,289.337097 106.705940,299.004456 
	C110.464699,301.497955 113.816116,299.316956 116.417236,297.852966 
	C126.367950,292.252350 136.911179,287.561218 145.188034,279.185822 
	C146.792252,277.562531 149.924454,276.079285 153.541199,276.790436 
	C158.389877,277.743744 163.534088,276.657867 168.510941,277.958130 
	C175.166962,279.697205 180.757477,285.008240 180.909683,291.002289 
	C181.060898,296.957489 178.498810,302.120880 174.491943,306.492615 
	C166.215408,315.522766 155.965118,321.823334 145.563110,328.104523 
	C127.783180,338.840851 108.983330,347.697906 91.390190,358.826385 
	C70.167931,372.250427 53.280674,389.703827 39.020943,410.014709 
	C30.781858,421.750092 23.189848,433.945129 14.000000,445.000000 
"/>
<path fill="none" opacity="1.000000" stroke="#AB8BFF" stroke-linecap="round" stroke-linejoin="round" stroke-width="3.000000"
	d="
M292.500000,221.500000 
	C287.967621,222.207382 283.442108,221.262100 279.001038,221.278458 
	C269.810516,221.312332 260.747986,219.420670 251.486572,220.368851 
	C241.389145,221.402603 231.337524,222.200211 221.451996,224.818802 
	C218.672440,225.555054 217.630219,226.616943 216.416611,228.956741 
	C207.981339,245.219620 207.143188,262.355042 209.983246,280.002686 
	C210.436127,282.816803 210.187881,285.828552 211.081848,288.472321 
	C215.232025,300.745789 222.131378,301.899078 232.984329,298.450714 
	C242.325150,295.482758 249.922714,289.452026 257.491730,283.489502 
	C264.927917,277.631561 271.615570,270.921204 277.921906,263.929565 
	C287.842316,252.931152 300.241119,250.834335 314.001526,252.487213 
	C314.823029,252.585892 315.666656,252.500000 316.500000,252.500000 
"/>
<path fill="none" opacity="1.000000" stroke="#AB8BFF" stroke-linecap="round" stroke-linejoin="round" stroke-width="2.000000"
	d="
M966.500000,36.500000 
	C950.002747,39.163979 933.752441,42.771580 917.990112,48.472713 
	C893.771057,57.232594 872.145935,70.032555 853.969849,88.470299 
	C847.592773,94.939178 840.749817,100.947014 832.471313,104.940468 
	C830.044495,106.111137 827.371643,107.093140 824.500000,106.500000 
"/>
<path fill="none" opacity="1.000000" stroke="#AB8BFF" stroke-linecap="round" stroke-linejoin="round" stroke-width="3.000000"
	d="
M299.500000,253.000000 
	C296.163116,259.741394 297.172119,264.829529 303.551331,270.441650 
	C306.763336,273.267395 310.280518,275.768646 313.964630,278.056915 
	C323.986755,284.281860 323.560699,285.630829 319.449585,296.981750 
	C317.791473,301.559875 315.773010,305.916046 315.899231,311.002502 
	C315.967133,313.737823 317.072632,315.866058 319.074158,316.848999 
	C321.049835,317.819244 323.278015,316.757965 325.021881,315.021973 
	C333.438080,306.643768 340.009583,296.818237 342.713074,285.431885 
	C345.035614,275.650085 339.932159,267.446045 331.952789,261.564056 
	C328.059052,258.693787 323.666656,256.500000 319.500000,254.000015 
"/>
<path fill="none" opacity="1.000000" stroke="#AB8BFF" stroke-linecap="round" stroke-linejoin="round" stroke-width="3.000000"
	d="
M824.000000,106.500000 
	C818.572937,105.657867 817.246094,101.148422 816.080505,96.977509 
	C813.760559,88.675911 815.458252,80.312538 816.515503,72.001976 
	C816.919861,68.823143 817.320557,65.623871 818.062195,62.514828 
	C818.568848,60.390743 818.874817,57.905174 821.877686,56.872009 
	C826.099426,60.784119 826.616882,66.510223 826.763855,71.506950 
	C827.062744,81.661911 827.680542,91.838287 825.186951,102.045670 
	C822.317688,113.790138 816.405273,123.137291 807.523682,131.026627 
	C795.865295,141.382462 781.639526,146.079468 767.004761,150.017776 
	C760.741943,151.703125 754.486938,153.214005 748.419739,155.812561 
	C741.214294,158.898590 736.645081,163.882217 732.921387,170.455475 
	C728.138977,178.897568 724.995361,188.229477 719.000000,196.000000 
"/>
<path fill="none" opacity="1.000000" stroke="#AB8BFF" stroke-linecap="round" stroke-linejoin="round" stroke-width="3.000000"
	d="
M344.000000,179.000000 
	C339.067322,179.053650 334.335052,177.500168 329.545898,176.718704 
	C326.066345,176.150955 322.330902,175.297195 318.997162,175.260818 
	C310.465607,175.167709 302.028717,173.883469 293.499603,173.932724 
	C284.493469,173.984756 276.371704,176.318283 268.990265,181.486084 
	C254.195496,191.843979 240.418121,203.451843 227.025253,215.528015 
	C224.192627,218.082153 221.280228,220.680923 220.000000,224.500000 
"/>
<path fill="none" opacity="1.000000" stroke="#AB8BFF" stroke-linecap="round" stroke-linejoin="round" stroke-width="3.000000"
	d="
M317.500000,253.000000 
	C320.386017,251.640717 323.473236,251.900665 326.498993,252.024399 
	C339.252960,252.545929 351.581909,250.381165 363.476807,245.937943 
	C368.870117,243.923325 374.097015,241.459991 378.527008,237.530457 
	C385.087128,231.711472 385.021271,226.963913 382.936340,221.022339 
	C381.549408,217.069901 373.314117,215.527512 366.981262,216.356964 
	C354.607727,217.977585 342.482239,220.961746 330.020966,222.209381 
	C320.807800,223.131805 311.662628,222.559708 302.500702,223.013916 
	C301.162384,223.080276 299.833344,223.333328 298.500000,223.500000 
"/>
<path fill="none" opacity="1.000000" stroke="#AB8BFF" stroke-linecap="round" stroke-linejoin="round" stroke-width="3.000000"
	d="
M714.000000,169.000000 
	C711.563843,171.576706 708.911621,173.925034 706.960022,176.974411 
	C704.195557,181.293701 703.314453,186.262665 702.108276,191.027420 
	C699.438843,201.572784 700.783691,203.898727 709.966370,210.050232 
	C715.803772,213.960770 721.789917,217.701355 727.026733,222.470627 
	C728.518616,223.829254 730.202271,225.453354 732.033691,225.840500 
	C734.242798,226.307465 737.137573,226.914993 738.919495,224.927811 
	C740.637268,223.012207 740.501343,220.390335 739.490417,218.004044 
	C735.694031,209.043091 729.171387,202.605698 721.057556,197.410095 
	C717.547607,195.162537 714.666687,198.412003 711.500000,197.500000 
"/>
<path fill="none" opacity="1.000000" stroke="#AB8BFF" stroke-linecap="round" stroke-linejoin="round" stroke-width="3.000000"
	d="
M704.500000,179.500000 
	C698.795166,182.650024 697.564697,188.515518 696.064026,194.017456 
	C693.291138,204.183487 692.992676,214.847366 690.045654,225.013229 
	C688.344238,230.882034 685.978516,236.372971 681.946106,240.952530 
	C679.821716,243.365234 676.357544,245.286743 673.634094,243.760681 
	C670.870728,242.212219 669.902588,238.699966 670.925842,234.979599 
	C672.231934,230.230438 673.050476,225.342972 673.977539,220.495697 
	C674.405701,218.257339 672.978149,216.289246 672.887512,214.004456 
	C672.624146,207.363968 673.638184,200.928696 675.000000,194.500000 
"/>
<path fill="none" opacity="1.000000" stroke="#AB8BFF" stroke-linecap="round" stroke-linejoin="round" stroke-width="3.000000"
	d="
M216.000000,227.000000 
	C208.428558,229.789825 201.195618,233.283630 195.026413,238.531052 
	C180.444183,250.934372 166.000000,263.500000 151.500000,276.000000 
"/>
<path fill="none" opacity="1.000000" stroke="#AB8BFF" stroke-linecap="round" stroke-linejoin="round" stroke-width="3.000000"
	d="
M345.000000,179.500000 
	C351.666656,180.666672 358.333771,181.830917 364.999817,183.001068 
	C368.128021,183.550201 371.081757,184.802261 371.893036,188.026917 
	C372.755005,191.453094 369.996796,193.351196 367.488556,194.982407 
	C363.704926,197.443115 359.469879,198.812775 354.998596,198.956635 
	C343.725830,199.319336 332.647522,197.176895 321.480957,196.222824 
	C309.983765,195.240509 298.215363,195.482742 288.015930,202.523087 
	C286.567444,203.522919 285.155548,204.686127 284.040222,206.033295 
	C282.210297,208.243607 281.623016,210.530441 283.970734,213.027512 
	C289.358795,218.758286 295.675934,223.283768 302.533112,226.937836 
	C313.955048,233.024338 317.827148,242.695663 317.030640,255.001984 
	C316.668732,260.593079 316.928925,266.177643 319.018555,271.492706 
	C319.561829,272.874542 320.174133,274.279663 321.026855,275.480927 
	C325.306641,281.510101 327.867157,279.092468 330.394165,274.935669 
	C332.114563,272.105621 332.833344,268.666656 334.000000,265.500000 
"/>
<path fill="none" opacity="1.000000" stroke="#AB8BFF" stroke-linecap="round" stroke-linejoin="round" stroke-width="3.000000"
	d="
M339.000000,221.500000 
	C337.218750,235.007065 336.339569,248.636642 333.500000,262.000000 
"/>
<path fill="none" opacity="1.000000" stroke="#AB8BFF" stroke-linecap="round" stroke-linejoin="round" stroke-width="3.000000"
	d="
M590.000000,117.500000 
	C590.000000,116.333336 589.703491,115.070534 590.045776,114.014832 
	C593.570679,103.142227 586.029541,100.293518 578.026611,102.592697 
	C576.617065,102.997650 575.320618,102.731796 574.000000,103.000000 
"/>
<path fill="none" opacity="1.000000" stroke="#AB8BFF" stroke-linecap="round" stroke-linejoin="round" stroke-width="3.000000"
	d="
M676.000000,197.500000 
	C678.337524,204.300217 676.013611,210.867340 675.000000,217.500000 
"/>
</svg>